{
    "asset" : {
        "generator" : "Khronos glTF Blender I/O v3.3.32",
        "version" : "2.0"
    },
    "scene" : 0,
    "scenes" : [
        {
            "name" : "Scene",
            "nodes" : [
                12
            ]
        }
    ],
    "nodes" : [
        {
            "name" : "Arm_L",
            "rotation" : [
                -0.0029222837183624506,
                -0.00013851943367626518,
                0.0038973744958639145,
                0.9999881386756897
            ],
            "translation" : [
                7.712580574192884e-15,
                0.8163349032402039,
                4.76837158203125e-07
            ]
        },
        {
            "children" : [
                0
            ],
            "name" : "Shoulder_L",
            "rotation" : [
                -0.70710688829422,
                -2.0061120764580664e-08,
                -2.0061126093651183e-08,
                0.7071066498756409
            ],
            "translation" : [
                -2.539530218059749e-11,
                1.0000007152557373,
                1.070579291884144e-09
            ]
        },
        {
            "name" : "Arm_R",
            "rotation" : [
                0.03844314068555832,
                0.004996883682906628,
                0.06379753351211548,
                0.9972096681594849
            ],
            "scale" : [
                1.000000238418579,
                1,
                0.9999999403953552
            ],
            "translation" : [
                8.195638656616211e-08,
                0.978425920009613,
                3.045424818992615e-07
            ]
        },
        {
            "children" : [
                2
            ],
            "name" : "Shoulder_R",
            "rotation" : [
                0.7000297904014587,
                1.2616186495506554e-07,
                -0.08801661431789398,
                0.7086687088012695
            ],
            "scale" : [
                1,
                0.9999998807907104,
                0.9999998807907104
            ],
            "translation" : [
                -1.725486242776242e-08,
                1.0000007152557373,
                1.0705782926834218e-09
            ]
        },
        {
            "name" : "Head",
            "rotation" : [
                -0.017497694119811058,
                -0.0005575264221988618,
                -0.10910402238368988,
                0.9938761591911316
            ],
            "scale" : [
                0.9999999403953552,
                1.0000003576278687,
                0.9999998807907104
            ],
            "translation" : [
                -7.512244337704033e-08,
                0.34788012504577637,
                -3.637978807091713e-10
            ]
        },
        {
            "children" : [
                4
            ],
            "name" : "Neck",
            "rotation" : [
                0.001431821146979928,
                -4.502191330857386e-08,
                0.10883796215057373,
                0.9940584897994995
            ],
            "scale" : [
                0.9999999403953552,
                0.9999999403953552,
                1
            ],
            "translation" : [
                1.7902564763971895e-08,
                1.0000004768371582,
                1.0706371345037269e-09
            ]
        },
        {
            "children" : [
                1,
                3,
                5
            ],
            "name" : "Spine",
            "rotation" : [
                1.65143518415789e-07,
                2.8370717330972184e-08,
                4.2869320018758955e-15,
                1
            ]
        },
        {
            "name" : "Leg_L",
            "rotation" : [
                -0.5641590356826782,
                -0.16473762691020966,
                -0.4952516555786133,
                0.6397750377655029
            ],
            "scale" : [
                1.000000238418579,
                1,
                0.9999998807907104
            ],
            "translation" : [
                5.983528694741835e-08,
                0.5450493097305298,
                2.0078732632100582e-07
            ]
        },
        {
            "children" : [
                7
            ],
            "name" : "Hip_L",
            "rotation" : [
                -0.7454503178596497,
                -0.024734409525990486,
                -0.02770487405359745,
                0.6655256748199463
            ],
            "scale" : [
                1,
                0.9999997615814209,
                1
            ]
        },
        {
            "name" : "Leg_R",
            "rotation" : [
                -0.6729909181594849,
                -0.07441320270299911,
                0.06709840148687363,
                0.7328327298164368
            ],
            "scale" : [
                0.9999998807907104,
                0.9999998211860657,
                0.9999998807907104
            ],
            "translation" : [
                3.652189661806915e-09,
                0.6111027598381042,
                1.2289456208236516e-07
            ]
        },
        {
            "children" : [
                9
            ],
            "name" : "Hip_R",
            "rotation" : [
                -0.01060357317328453,
                0.6736952066421509,
                0.7388699650764465,
                0.00967341661453247
            ],
            "scale" : [
                1.000003695487976,
                0.9999997019767761,
                1.0000392198562622
            ]
        },
        {
            "mesh" : 0,
            "name" : "Cube.001",
            "skin" : 0
        },
        {
            "children" : [
                11,
                6,
                8,
                10
            ],
            "name" : "Armature",
            "scale" : [
                1.1907967329025269,
                1.1907967329025269,
                1.1907967329025269
            ],
            "translation" : [
                0.004319421947002411,
                1.0535149574279785,
                -0.02878434956073761
            ]
        }
    ],
    "materials" : [
        {
            "doubleSided" : true,
            "name" : "Material.001",
            "pbrMetallicRoughness" : {
                "baseColorFactor" : [
                    0.800000011920929,
                    0.800000011920929,
                    0.800000011920929,
                    1
                ],
                "metallicFactor" : 0,
                "roughnessFactor" : 0.4000000059604645
            }
        }
    ],
    "meshes" : [
        {
            "name" : "Cube.001",
            "primitives" : [
                {
                    "attributes" : {
                        "POSITION" : 0,
                        "NORMAL" : 1,
                        "TEXCOORD_0" : 2,
                        "JOINTS_0" : 3,
                        "WEIGHTS_0" : 4
                    },
                    "indices" : 5,
                    "material" : 0
                }
            ]
        }
    ],
    "skins" : [
        {
            "inverseBindMatrices" : 6,
            "joints" : [
                6,
                1,
                0,
                3,
                2,
                5,
                4,
                8,
                7,
                10,
                9
            ],
            "name" : "Armature"
        }
    ],
    "accessors" : [
        {
            "bufferView" : 0,
            "componentType" : 5126,
            "count" : 1524,
            "max" : [
                1.0000009536743164,
                4.044981479644775,
                3.0314412117004395
            ],
            "min" : [
                -1.0000001192092896,
                -1.019487738609314,
                -3.0082623958587646
            ],
            "type" : "VEC3"
        },
        {
            "bufferView" : 1,
            "componentType" : 5126,
            "count" : 1524,
            "type" : "VEC3"
        },
        {
            "bufferView" : 2,
            "componentType" : 5126,
            "count" : 1524,
            "type" : "VEC2"
        },
        {
            "bufferView" : 3,
            "componentType" : 5121,
            "count" : 1524,
            "type" : "VEC4"
        },
        {
            "bufferView" : 4,
            "componentType" : 5126,
            "count" : 1524,
            "type" : "VEC4"
        },
        {
            "bufferView" : 5,
            "componentType" : 5123,
            "count" : 1548,
            "type" : "SCALAR"
        },
        {
            "bufferView" : 6,
            "componentType" : 5126,
            "count" : 11,
            "type" : "MAT4"
        }
    ],
    "bufferViews" : [
        {
            "buffer" : 0,
            "byteLength" : 18288,
            "byteOffset" : 0,
            "target" : 34962
        },
        {
            "buffer" : 0,
            "byteLength" : 18288,
            "byteOffset" : 18288,
            "target" : 34962
        },
        {
            "buffer" : 0,
            "byteLength" : 12192,
            "byteOffset" : 36576,
            "target" : 34962
        },
        {
            "buffer" : 0,
            "byteLength" : 6096,
            "byteOffset" : 48768,
            "target" : 34962
        },
        {
            "buffer" : 0,
            "byteLength" : 24384,
            "byteOffset" : 54864,
            "target" : 34962
        },
        {
            "buffer" : 0,
            "byteLength" : 3096,
            "byteOffset" : 79248,
            "target" : 34963
        },
        {
            "buffer" : 0,
            "byteLength" : 704,
            "byteOffset" : 82344
        }
    ],
    "buffers" : [
        {
            "byteLength" : 83048,
            "uri" : "data:application/octet-stream;base64,"
        }
    ]
}
