{
    "asset" : {
        "generator" : "Khronos glTF Blender I/O v3.3.32",
        "version" : "2.0"
    },
    "scene" : 0,
    "scenes" : [
        {
            "name" : "Scene",
            "nodes" : [
                12
            ]
        }
    ],
    "nodes" : [
        {
            "name" : "Arm_L",
            "rotation" : [
                -0.002922286046668887,
                -0.00013851925905328244,
                0.003897374030202627,
                0.9999881386756897
            ],
            "translation" : [
                1.1145598333150986e-16,
                0.81633460521698,
                2.419485554128187e-07
            ]
        },
        {
            "children" : [
                0
            ],
            "name" : "Shoulder_L",
            "rotation" : [
                -0.7071068286895752,
                -5.35617461494553e-09,
                -5.35617594721316e-09,
                0.7071067094802856
            ],
            "translation" : [
                1.333713417484006e-10,
                1.0000004768371582,
                1.465841337200402e-10
            ]
        },
        {
            "name" : "Arm_R",
            "rotation" : [
                0.038443177938461304,
                0.004996939096599817,
                0.06379754841327667,
                0.9972096681594849
            ],
            "scale" : [
                1.0000001192092896,
                0.9999999403953552,
                0.9999999403953552
            ],
            "translation" : [
                5.960464477539063e-08,
                0.9784252643585205,
                2.3189932107925415e-07
            ]
        },
        {
            "children" : [
                2
            ],
            "name" : "Shoulder_R",
            "rotation" : [
                0.700029730796814,
                7.359441411836087e-08,
                -0.08801670372486115,
                0.7086687684059143
            ],
            "scale" : [
                0.9999999403953552,
                0.9999998807907104,
                0.9999998807907104
            ],
            "translation" : [
                -1.7096096982527342e-08,
                1.0000004768371582,
                1.4658387004207185e-10
            ]
        },
        {
            "name" : "Head",
            "rotation" : [
                -0.01749769039452076,
                -0.0005575264221988618,
                -0.1091039627790451,
                0.9938761591911316
            ],
            "scale" : [
                0.9999998807907104,
                1.0000001192092896,
                0.9999998807907104
            ],
            "translation" : [
                -6.915797712281346e-09,
                0.34788012504577637,
                -8.694769348949194e-10
            ]
        },
        {
            "children" : [
                4
            ],
            "name" : "Neck",
            "rotation" : [
                0.0014318226603791118,
                -2.392726905497966e-08,
                0.10883792489767075,
                0.9940584897994995
            ],
            "scale" : [
                1,
                0.9999999403953552,
                1
            ],
            "translation" : [
                1.806133020920697e-08,
                1.0000001192092896,
                1.4664125469465716e-10
            ]
        },
        {
            "children" : [
                1,
                3,
                5
            ],
            "name" : "Spine",
            "rotation" : [
                6.339203650895797e-08,
                7.574776361707336e-09,
                5.088690720462098e-16,
                1
            ]
        },
        {
            "name" : "Leg_L",
            "rotation" : [
                -0.6648762226104736,
                0.07822319120168686,
                -0.05762062221765518,
                0.740608274936676
            ],
            "scale" : [
                1.0000001192092896,
                0.9999999403953552,
                0.9999998211860657
            ],
            "translation" : [
                -2.2359788687253968e-08,
                0.5450491905212402,
                1.248554326593876e-07
            ]
        },
        {
            "children" : [
                7
            ],
            "name" : "Hip_L",
            "rotation" : [
                -0.7454503178596497,
                -0.024734407663345337,
                -0.027704862877726555,
                0.6655256748199463
            ],
            "scale" : [
                1,
                0.9999998807907104,
                1
            ]
        },
        {
            "name" : "Leg_R",
            "rotation" : [
                -0.672991931438446,
                -0.07441152632236481,
                0.06709993630647659,
                0.7328317761421204
            ],
            "scale" : [
                1,
                0.9999999403953552,
                1
            ],
            "translation" : [
                2.8159092835267074e-09,
                0.6111024618148804,
                1.0109215509146452e-07
            ]
        },
        {
            "children" : [
                9
            ],
            "name" : "Hip_R",
            "rotation" : [
                -0.010602593421936035,
                0.6736955642700195,
                0.7388697266578674,
                0.009670734405517578
            ],
            "scale" : [
                1.0000019073486328,
                1.0000001192092896,
                1.0000196695327759
            ]
        },
        {
            "mesh" : 0,
            "name" : "Cube.001",
            "skin" : 0
        },
        {
            "children" : [
                11,
                6,
                8,
                10
            ],
            "name" : "Armature",
            "scale" : [
                1.1907967329025269,
                1.1907967329025269,
                1.1907967329025269
            ],
            "translation" : [
                0.004319421947002411,
                1.0535149574279785,
                -0.02878434956073761
            ]
        }
    ],
    "materials" : [
        {
            "doubleSided" : true,
            "name" : "Material.001",
            "pbrMetallicRoughness" : {
                "baseColorFactor" : [
                    0.800000011920929,
                    0.800000011920929,
                    0.800000011920929,
                    1
                ],
                "metallicFactor" : 0,
                "roughnessFactor" : 0.4000000059604645
            }
        }
    ],
    "meshes" : [
        {
            "name" : "Cube.001",
            "primitives" : [
                {
                    "attributes" : {
                        "POSITION" : 0,
                        "NORMAL" : 1,
                        "TEXCOORD_0" : 2,
                        "JOINTS_0" : 3,
                        "WEIGHTS_0" : 4
                    },
                    "indices" : 5,
                    "material" : 0
                }
            ]
        }
    ],
    "skins" : [
        {
            "inverseBindMatrices" : 6,
            "joints" : [
                6,
                1,
                0,
                3,
                2,
                5,
                4,
                8,
                7,
                10,
                9
            ],
            "name" : "Armature"
        }
    ],
    "accessors" : [
        {
            "bufferView" : 0,
            "componentType" : 5126,
            "count" : 1501,
            "max" : [
                1.0000004768371582,
                4.044981002807617,
                3.0314407348632812
            ],
            "min" : [
                -1.0000001192092896,
                -1.0195233821868896,
                -3.0082623958587646
            ],
            "type" : "VEC3"
        },
        {
            "bufferView" : 1,
            "componentType" : 5126,
            "count" : 1501,
            "type" : "VEC3"
        },
        {
            "bufferView" : 2,
            "componentType" : 5126,
            "count" : 1501,
            "type" : "VEC2"
        },
        {
            "bufferView" : 3,
            "componentType" : 5121,
            "count" : 1501,
            "type" : "VEC4"
        },
        {
            "bufferView" : 4,
            "componentType" : 5126,
            "count" : 1501,
            "type" : "VEC4"
        },
        {
            "bufferView" : 5,
            "componentType" : 5123,
            "count" : 1548,
            "type" : "SCALAR"
        },
        {
            "bufferView" : 6,
            "componentType" : 5126,
            "count" : 11,
            "type" : "MAT4"
        }
    ],
    "bufferViews" : [
        {
            "buffer" : 0,
            "byteLength" : 18012,
            "byteOffset" : 0,
            "target" : 34962
        },
        {
            "buffer" : 0,
            "byteLength" : 18012,
            "byteOffset" : 18012,
            "target" : 34962
        },
        {
            "buffer" : 0,
            "byteLength" : 12008,
            "byteOffset" : 36024,
            "target" : 34962
        },
        {
            "buffer" : 0,
            "byteLength" : 6004,
            "byteOffset" : 48032,
            "target" : 34962
        },
        {
            "buffer" : 0,
            "byteLength" : 24016,
            "byteOffset" : 54036,
            "target" : 34962
        },
        {
            "buffer" : 0,
            "byteLength" : 3096,
            "byteOffset" : 78052,
            "target" : 34963
        },
        {
            "buffer" : 0,
            "byteLength" : 704,
            "byteOffset" : 81148
        }
    ],
    "buffers" : [
        {
            "byteLength" : 81852,
            "uri" : "data:application/octet-stream;base64,"
        }
    ]
}
