{
    "asset" : {
        "generator" : "Khronos glTF Blender I/O v3.3.32",
        "version" : "2.0"
    },
    "scene" : 0,
    "scenes" : [
        {
            "name" : "Scene",
            "nodes" : [
                20
            ]
        }
    ],
    "nodes" : [
        {
            "name" : "Foot_L",
            "rotation" : [
                2.7610131682735413e-30,
                0,
                -3.1554436208840472e-30,
                1
            ],
            "translation" : [
                4.440892098500626e-16,
                0.5575146079063416,
                3.3306690738754696e-15
            ]
        },
        {
            "children" : [
                0
            ],
            "name" : "Lower_Leg_L",
            "rotation" : [
                2.7610131682735413e-30,
                0,
                -3.1554436208840472e-30,
                1
            ],
            "translation" : [
                4.440892098500626e-16,
                0.6025126576423645,
                3.3306690738754696e-15
            ]
        },
        {
            "children" : [
                1
            ],
            "name" : "Upper_Leg_L",
            "rotation" : [
                -0.7071068286895752,
                -1.1238228125876049e-08,
                4.214684778958144e-08,
                0.7071068286895752
            ],
            "translation" : [
                1.7763568394002505e-15,
                0.5426684617996216,
                1.9984014443252818e-15
            ]
        },
        {
            "children" : [
                2
            ],
            "name" : "Hip_L",
            "rotation" : [
                -0.5,
                -0.5,
                -0.5,
                0.5
            ],
            "scale" : [
                1,
                0.9999999403953552,
                1
            ],
            "translation" : [
                0,
                1,
                0
            ]
        },
        {
            "name" : "Foot_R",
            "rotation" : [
                -3.3087218191233865e-23,
                -3.552713678800501e-15,
                -1.0587911840678754e-22,
                1
            ],
            "translation" : [
                -1.3322676295501878e-15,
                0.5562565326690674,
                3.3306690738754696e-15
            ]
        },
        {
            "children" : [
                4
            ],
            "name" : "Lower_Leg_R",
            "rotation" : [
                -1.7293471873127438e-22,
                1.0587913102856203e-22,
                1.776356733521132e-15,
                1
            ],
            "translation" : [
                -1.5857941197840566e-15,
                0.6016310453414917,
                3.3306690738754696e-15
            ]
        },
        {
            "children" : [
                5
            ],
            "name" : "Upper_Leg_R",
            "rotation" : [
                -0.7071068286895752,
                1.1238229902232888e-08,
                -4.214685134229512e-08,
                0.7071068286895752
            ],
            "scale" : [
                1,
                0.9999999403953552,
                1
            ],
            "translation" : [
                -1.7763568394002505e-15,
                0.46433937549591064,
                1.9984014443252818e-15
            ]
        },
        {
            "children" : [
                6
            ],
            "name" : "Hip_R",
            "rotation" : [
                -0.5,
                0.5,
                0.5,
                0.5
            ],
            "scale" : [
                1,
                0.9999999403953552,
                1
            ],
            "translation" : [
                0,
                1,
                0
            ]
        },
        {
            "name" : "Head",
            "translation" : [
                0,
                0.48752307891845703,
                0
            ]
        },
        {
            "children" : [
                8
            ],
            "name" : "Neck",
            "translation" : [
                0,
                0.26181983947753906,
                0
            ]
        },
        {
            "name" : "Lower_Arm_R",
            "rotation" : [
                -2.524354896707238e-29,
                3.552713678800501e-15,
                -3.552713467042264e-15,
                1
            ],
            "translation" : [
                2.384185791015625e-07,
                0.5322772264480591,
                -1.0658141036401503e-14
            ]
        },
        {
            "children" : [
                10
            ],
            "name" : "Upper_Arm_R",
            "rotation" : [
                -2.524354896707238e-29,
                0,
                -3.552713467042264e-15,
                1
            ],
            "translation" : [
                2.384185791015625e-07,
                0.9141901731491089,
                3.552713678800501e-15
            ]
        },
        {
            "children" : [
                11
            ],
            "name" : "Shoulder_R",
            "rotation" : [
                -2.6692545063156103e-08,
                2.6692545063156103e-08,
                0.7071068286895752,
                0.7071068286895752
            ],
            "scale" : [
                0.9999999403953552,
                0.9999999403953552,
                1
            ],
            "translation" : [
                0,
                0.26181983947753906,
                0
            ]
        },
        {
            "name" : "Lower_Arm_L",
            "translation" : [
                -3.1086244689504383e-15,
                0.5123951435089111,
                3.552713678800501e-15
            ]
        },
        {
            "children" : [
                13
            ],
            "name" : "Upper_Arm_L",
            "translation" : [
                -3.1086244689504383e-15,
                0.9359130263328552,
                3.552713678800501e-15
            ]
        },
        {
            "children" : [
                14
            ],
            "name" : "Shoulder_L",
            "rotation" : [
                -2.6692541510442425e-08,
                -2.6692541510442425e-08,
                -0.7071068286895752,
                0.7071068286895752
            ],
            "translation" : [
                0,
                0.26181983947753906,
                0
            ]
        },
        {
            "children" : [
                9,
                12,
                15
            ],
            "name" : "Back",
            "translation" : [
                0,
                1,
                0
            ]
        },
        {
            "children" : [
                16
            ],
            "name" : "Spine",
            "translation" : [
                0,
                1,
                0
            ]
        },
        {
            "children" : [
                3,
                7,
                17
            ],
            "name" : "Root",
            "translation" : [
                -0.01976354606449604,
                0.5302696228027344,
                -4.381422158417081e-08
            ]
        },
        {
            "mesh" : 0,
            "name" : "Cylinder",
            "skin" : 0
        },
        {
            "children" : [
                19,
                18
            ],
            "name" : "Armature"
        }
    ],
    "meshes" : [
        {
            "name" : "Cylinder",
            "primitives" : [
                {
                    "attributes" : {
                        "POSITION" : 0,
                        "NORMAL" : 1,
                        "TEXCOORD_0" : 2,
                        "JOINTS_0" : 3,
                        "WEIGHTS_0" : 4
                    },
                    "indices" : 5
                }
            ]
        }
    ],
    "skins" : [
        {
            "inverseBindMatrices" : 6,
            "joints" : [
                18,
                3,
                2,
                1,
                0,
                7,
                6,
                5,
                4,
                17,
                16,
                9,
                8,
                12,
                11,
                10,
                15,
                14,
                13
            ],
            "name" : "Armature"
        }
    ],
    "accessors" : [
        {
            "bufferView" : 0,
            "componentType" : 5126,
            "count" : 494,
            "max" : [
                2.316648483276367,
                4.226627349853516,
                0.6578670740127563
            ],
            "min" : [
                -2.316648483276367,
                0.00393653055652976,
                -0.45499908924102783
            ],
            "type" : "VEC3"
        },
        {
            "bufferView" : 1,
            "componentType" : 5126,
            "count" : 494,
            "type" : "VEC3"
        },
        {
            "bufferView" : 2,
            "componentType" : 5126,
            "count" : 494,
            "type" : "VEC2"
        },
        {
            "bufferView" : 3,
            "componentType" : 5121,
            "count" : 494,
            "type" : "VEC4"
        },
        {
            "bufferView" : 4,
            "componentType" : 5126,
            "count" : 494,
            "type" : "VEC4"
        },
        {
            "bufferView" : 5,
            "componentType" : 5123,
            "count" : 708,
            "type" : "SCALAR"
        },
        {
            "bufferView" : 6,
            "componentType" : 5126,
            "count" : 19,
            "type" : "MAT4"
        }
    ],
    "bufferViews" : [
        {
            "buffer" : 0,
            "byteLength" : 5928,
            "byteOffset" : 0,
            "target" : 34962
        },
        {
            "buffer" : 0,
            "byteLength" : 5928,
            "byteOffset" : 5928,
            "target" : 34962
        },
        {
            "buffer" : 0,
            "byteLength" : 3952,
            "byteOffset" : 11856,
            "target" : 34962
        },
        {
            "buffer" : 0,
            "byteLength" : 1976,
            "byteOffset" : 15808,
            "target" : 34962
        },
        {
            "buffer" : 0,
            "byteLength" : 7904,
            "byteOffset" : 17784,
            "target" : 34962
        },
        {
            "buffer" : 0,
            "byteLength" : 1416,
            "byteOffset" : 25688,
            "target" : 34963
        },
        {
            "buffer" : 0,
            "byteLength" : 1216,
            "byteOffset" : 27104
        }
    ],
    "buffers" : [
        {
            "byteLength" : 28320,
            "uri" : "data:application/octet-stream;base64,"
        }
    ]
}
