{
    "asset" : {
        "generator" : "Khronos glTF Blender I/O v3.3.32",
        "version" : "2.0"
    },
    "scene" : 0,
    "scenes" : [
        {
            "name" : "Scene",
            "nodes" : [
                14
            ]
        }
    ],
    "nodes" : [
        {
            "name" : "Head",
            "rotation" : [
                0,
                1.1920928955078125e-07,
                0,
                1
            ],
            "translation" : [
                0,
                1,
                0
            ]
        },
        {
            "name" : "Lower_Arm_L",
            "rotation" : [
                -2.524354896707238e-29,
                0,
                3.552713467042264e-15,
                1
            ],
            "translation" : [
                -2.3441933194590092e-07,
                0.6414476037025452,
                -4.761204763781279e-10
            ]
        },
        {
            "children" : [
                1
            ],
            "name" : "Upper_Arm_L",
            "rotation" : [
                -2.6692545063156103e-08,
                -2.6692545063156103e-08,
                -0.7071068286895752,
                0.7071068286895752
            ],
            "scale" : [
                0.9999999403953552,
                0.9999999403953552,
                1
            ],
            "translation" : [
                0.6528900265693665,
                0.6833574771881104,
                0
            ]
        },
        {
            "name" : "Lower_Arm_R",
            "rotation" : [
                4.764560328305439e-22,
                5.962448312857305e-09,
                3.552714525833448e-15,
                1
            ],
            "translation" : [
                1.6040644368331414e-09,
                0.6414474248886108,
                -8.630173020662824e-09
            ]
        },
        {
            "children" : [
                3
            ],
            "name" : "Upper_Arm_R",
            "rotation" : [
                0.5000001192092896,
                -0.5000000596046448,
                0.5,
                0.5
            ],
            "scale" : [
                0.9999998807907104,
                0.9999997615814209,
                0.9999999403953552
            ],
            "translation" : [
                -0.6528900265693665,
                0.6833574771881104,
                0
            ]
        },
        {
            "name" : "Foot_R",
            "translation" : [
                0,
                0.5366255044937134,
                0
            ]
        },
        {
            "children" : [
                5
            ],
            "name" : "Lower_Leg_R",
            "translation" : [
                0,
                0.5349897146224976,
                0
            ]
        },
        {
            "children" : [
                6
            ],
            "name" : "Upper_Leg_R",
            "rotation" : [
                0,
                4.371138828673793e-08,
                0,
                1
            ],
            "translation" : [
                -0.45827558636665344,
                0.4487262964248657,
                4.0063724782157806e-08
            ]
        },
        {
            "name" : "Foot_L",
            "translation" : [
                0,
                0.5366255044937134,
                0
            ]
        },
        {
            "children" : [
                8
            ],
            "name" : "Lower_Leg_L",
            "translation" : [
                0,
                0.5349897146224976,
                0
            ]
        },
        {
            "children" : [
                9
            ],
            "name" : "Upper_Leg_L",
            "rotation" : [
                0,
                4.371138828673793e-08,
                0,
                1
            ],
            "translation" : [
                0.45827558636665344,
                0.4487262964248657,
                -4.0063724782157806e-08
            ]
        },
        {
            "children" : [
                7,
                10
            ],
            "name" : "Root",
            "rotation" : [
                1,
                0,
                -4.371138828673793e-08,
                0
            ],
            "translation" : [
                0,
                -0.09508299827575684,
                0
            ]
        },
        {
            "children" : [
                0,
                2,
                4,
                11
            ],
            "name" : "Spine"
        },
        {
            "mesh" : 0,
            "name" : "Cylinder",
            "skin" : 0
        },
        {
            "children" : [
                13,
                12
            ],
            "name" : "Armature",
            "translation" : [
                0,
                2.0735421180725098,
                0.05297162011265755
            ]
        }
    ],
    "meshes" : [
        {
            "name" : "Cylinder",
            "primitives" : [
                {
                    "attributes" : {
                        "POSITION" : 0,
                        "NORMAL" : 1,
                        "TEXCOORD_0" : 2,
                        "JOINTS_0" : 3,
                        "WEIGHTS_0" : 4
                    },
                    "indices" : 5
                }
            ]
        }
    ],
    "skins" : [
        {
            "inverseBindMatrices" : 6,
            "joints" : [
                12,
                0,
                2,
                1,
                4,
                3,
                11,
                7,
                6,
                5,
                10,
                9,
                8
            ],
            "name" : "Armature"
        }
    ],
    "accessors" : [
        {
            "bufferView" : 0,
            "componentType" : 5126,
            "count" : 494,
            "max" : [
                2.316648483276367,
                4.226627826690674,
                0.6578670740127563
            ],
            "min" : [
                -2.316648483276367,
                0.0039364369586110115,
                -0.45499908924102783
            ],
            "type" : "VEC3"
        },
        {
            "bufferView" : 1,
            "componentType" : 5126,
            "count" : 494,
            "type" : "VEC3"
        },
        {
            "bufferView" : 2,
            "componentType" : 5126,
            "count" : 494,
            "type" : "VEC2"
        },
        {
            "bufferView" : 3,
            "componentType" : 5121,
            "count" : 494,
            "type" : "VEC4"
        },
        {
            "bufferView" : 4,
            "componentType" : 5126,
            "count" : 494,
            "type" : "VEC4"
        },
        {
            "bufferView" : 5,
            "componentType" : 5123,
            "count" : 708,
            "type" : "SCALAR"
        },
        {
            "bufferView" : 6,
            "componentType" : 5126,
            "count" : 13,
            "type" : "MAT4"
        }
    ],
    "bufferViews" : [
        {
            "buffer" : 0,
            "byteLength" : 5928,
            "byteOffset" : 0,
            "target" : 34962
        },
        {
            "buffer" : 0,
            "byteLength" : 5928,
            "byteOffset" : 5928,
            "target" : 34962
        },
        {
            "buffer" : 0,
            "byteLength" : 3952,
            "byteOffset" : 11856,
            "target" : 34962
        },
        {
            "buffer" : 0,
            "byteLength" : 1976,
            "byteOffset" : 15808,
            "target" : 34962
        },
        {
            "buffer" : 0,
            "byteLength" : 7904,
            "byteOffset" : 17784,
            "target" : 34962
        },
        {
            "buffer" : 0,
            "byteLength" : 1416,
            "byteOffset" : 25688,
            "target" : 34963
        },
        {
            "buffer" : 0,
            "byteLength" : 832,
            "byteOffset" : 27104
        }
    ],
    "buffers" : [
        {
            "byteLength" : 27936,
            "uri" : "data:application/octet-stream;base64,"
        }
    ]
}
