# Blender 3.3.1
# www.blender.org
mtllib sword.mtl
o Cube
v -0.002054 1.000000 -0.030000
v 0.462030 -1.000000 -0.020715
v -0.002054 1.000000 0.030000
v 0.462030 -1.000000 0.020715
v 0.002054 1.000000 -0.030000
v -0.462030 -1.000000 -0.020715
v 0.002054 1.000000 0.030000
v -0.462030 -1.000000 0.020715
v 1.000000 0.000000 -0.030000
v -1.000000 0.000000 0.030000
v 1.000000 0.000000 0.030000
v -1.000000 0.000000 -0.030000
v -1.000000 0.500000 0.030000
v 1.000000 0.500000 -0.030000
v 1.000000 0.500000 0.030000
v -1.000000 0.500000 -0.030000
v -1.000000 0.750000 0.030000
v 1.000000 0.750000 -0.030000
v 1.000000 0.750000 0.030000
v -1.000000 0.750000 -0.030000
v 1.000000 -0.500000 -0.030000
v 1.000000 -0.500000 0.030000
v -1.000000 -0.500000 -0.030000
v -1.000000 -0.500000 0.030000
v 1.000000 -0.750000 -0.030000
v 1.000000 -0.750000 0.030000
v -1.000000 -0.750000 -0.030000
v -1.000000 -0.750000 0.030000
v 1.000000 -0.875000 -0.030000
v 1.000000 -0.875000 0.030000
v -1.000000 -0.875000 -0.030000
v -1.000000 -0.875000 0.030000
v 1.000000 -0.937500 -0.030000
v 1.000000 -0.937500 0.030000
v -1.000000 -0.937500 -0.030000
v -1.000000 -0.937500 0.030000
v 1.707641 -1.000000 -0.030000
v 1.707641 -1.000000 0.030000
v 1.707641 -0.937500 -0.030000
v 1.707641 -0.937500 0.030000
v -1.623327 -1.000000 -0.030000
v -1.623327 -1.000000 0.030000
v -1.623327 -0.937500 -0.030000
v -1.623327 -0.937500 0.030000
v -1.000000 -1.000000 -0.030000
v -1.000000 -1.000000 0.030000
v 1.000000 -1.000000 -0.030000
v 1.000000 -1.000000 0.030000
v 0.462030 -1.372661 -0.020715
v 0.462030 -1.372661 0.020715
v -0.462030 -1.372661 -0.020715
v -0.462030 -1.372661 0.020715
vn -0.0000 -1.0000 -0.0000
vn -0.0000 -0.0000 1.0000
vn -0.2421 0.9703 -0.0000
vn -0.0000 -0.0000 -1.0000
vn 0.2421 0.9703 -0.0000
vn 1.0000 -0.0000 -0.0000
vn -1.0000 -0.0000 -0.0000
vn -0.0000 1.0000 -0.0000
vt 0.625000 0.500000
vt 0.336314 0.538686
vt 0.625000 0.750000
vt 0.336314 0.711314
vt 0.875000 0.500000
vt 0.625000 0.250000
vt 0.163686 0.538686
vt 0.875000 0.750000
vt 0.625000 1.000000
vt 0.625000 0.000000
vt 0.163686 0.711314
vt 0.500000 0.500000
vt 0.500000 0.000000
vt 0.500000 1.000000
vt 0.500000 0.750000
vt 0.500000 0.250000
vt 0.562500 0.000000
vt 0.562500 1.000000
vt 0.562500 0.500000
vt 0.562500 0.750000
vt 0.562500 0.250000
vt 0.593750 0.000000
vt 0.593750 1.000000
vt 0.593750 0.500000
vt 0.593750 0.750000
vt 0.593750 0.250000
vt 0.437500 0.500000
vt 0.437500 0.750000
vt 0.437500 0.250000
vt 0.437500 1.000000
vt 0.437500 0.000000
vt 0.406250 0.500000
vt 0.406250 0.750000
vt 0.406250 0.250000
vt 0.406250 0.000000
vt 0.406250 1.000000
vt 0.390625 0.500000
vt 0.390625 0.750000
vt 0.390625 0.250000
vt 0.390625 1.000000
vt 0.390625 0.000000
vt 0.382812 0.500000
vt 0.382812 0.750000
vt 0.382812 0.250000
vt 0.382812 1.000000
vt 0.382812 0.000000
vt 0.375000 0.500000
vt 0.375000 0.750000
vt 0.382812 0.500000
vt 0.382812 0.750000
vt 0.125000 0.500000
vt 0.375000 0.250000
vt 0.375000 1.000000
vt 0.375000 0.000000
vt 0.125000 0.750000
vt 0.382812 0.250000
vt 0.382812 1.000000
vt 0.382812 0.000000
vt 0.375000 0.250000
vt 0.125000 0.500000
vt 0.375000 1.000000
vt 0.125000 0.750000
vt 0.375000 0.500000
vt 0.375000 0.750000
vt 0.336314 0.538686
vt 0.336314 0.711314
vt 0.163686 0.538686
vt 0.163686 0.711314
s 0
usemtl Material
f 1/1/1 5/5/1 7/8/1 3/3/1
f 19/25/2 3/3/2 7/9/2 17/23/2
f 17/22/3 7/10/3 5/6/3 20/26/3
f 6/7/4 2/2/4 49/65/4 51/67/4
f 18/24/5 1/1/5 3/3/5 19/25/5
f 20/26/4 5/6/4 1/1/4 18/24/4
f 23/29/4 12/16/4 9/12/4 21/27/4
f 21/27/6 9/12/6 11/15/6 22/28/6
f 24/31/7 10/13/7 12/16/7 23/29/7
f 22/28/2 11/15/2 10/14/2 24/30/2
f 12/16/4 16/21/4 14/19/4 9/12/4
f 9/12/6 14/19/6 15/20/6 11/15/6
f 10/13/7 13/17/7 16/21/7 12/16/7
f 11/15/2 15/20/2 13/18/2 10/14/2
f 16/21/4 20/26/4 18/24/4 14/19/4
f 14/19/6 18/24/6 19/25/6 15/20/6
f 13/17/7 17/22/7 20/26/7 16/21/7
f 15/20/2 19/25/2 17/23/2 13/18/2
f 26/33/2 22/28/2 24/30/2 28/36/2
f 28/35/7 24/31/7 23/29/7 27/34/7
f 25/32/6 21/27/6 22/28/6 26/33/6
f 27/34/4 23/29/4 21/27/4 25/32/4
f 31/39/4 27/34/4 25/32/4 29/37/4
f 29/37/6 25/32/6 26/33/6 30/38/6
f 32/41/7 28/35/7 27/34/7 31/39/7
f 30/38/2 26/33/2 28/36/2 32/40/2
f 34/43/2 30/38/2 32/40/2 36/45/2
f 36/46/7 32/41/7 31/39/7 35/44/7
f 33/42/6 29/37/6 30/38/6 34/43/6
f 35/44/4 31/39/4 29/37/4 33/42/4
f 45/59/4 35/44/4 33/42/4 47/63/4
f 34/43/2 48/64/2 38/48/2 40/50/2
f 46/61/2 36/45/2 44/57/2 42/53/2
f 48/64/2 34/43/2 36/45/2 46/61/2
f 37/47/6 39/49/6 40/50/6 38/48/6
f 47/63/4 33/42/4 39/49/4 37/47/4
f 48/64/1 47/63/1 37/47/1 38/48/1
f 33/42/8 34/43/8 40/50/8 39/49/8
f 42/54/7 44/58/7 43/56/7 41/52/7
f 45/60/1 46/62/1 42/55/1 41/51/1
f 36/46/8 35/44/8 43/56/8 44/58/8
f 35/44/4 45/59/4 41/52/4 43/56/4
f 6/7/1 8/11/1 46/62/1 45/60/1
f 2/2/1 6/7/1 45/60/1 47/63/1
f 8/11/1 4/4/1 48/64/1 46/62/1
f 4/4/1 2/2/1 47/63/1 48/64/1
f 51/67/1 49/65/1 50/66/1 52/68/1
f 4/4/2 8/11/2 52/68/2 50/66/2
f 8/11/7 6/7/7 51/67/7 52/68/7
f 2/2/6 4/4/6 50/66/6 49/65/6
