# Blender 3.3.1
# www.blender.org
mtllib weapon.mtl
o Cylinder
v -1.745782 1.709757 -0.037382
v -0.256298 1.709757 -0.037382
v -1.745782 1.656891 -0.090249
v -0.256298 1.656890 -0.090249
v -1.745782 1.582126 -0.090249
v -0.256298 1.582126 -0.090249
v -1.745782 1.529259 -0.037382
v -0.407060 1.529259 -0.037382
v -1.745782 1.529259 0.037382
v -0.407060 1.529259 0.037382
v -1.745782 1.582126 0.090249
v -0.256298 1.582126 0.090249
v -1.745782 1.656891 0.090249
v -0.256298 1.656890 0.090249
v -1.745782 1.709757 0.037382
v -0.256298 1.709757 0.037382
v 1.249416 1.656890 -0.090249
v 1.249416 1.709757 -0.037382
v 1.249416 1.582126 -0.090249
v 1.249416 1.582126 0.090249
v 1.249416 1.656890 0.090249
v 1.249416 1.709757 0.037382
v -0.256298 1.396711 -0.055925
v -0.256298 1.519371 -0.119354
v -0.256298 1.396711 0.055925
v -0.256298 1.519371 0.119354
v 1.249415 1.396711 -0.055925
v 1.249415 1.519371 -0.119354
v 1.249415 1.396711 0.055925
v 1.249415 1.519371 0.119354
v 1.293544 1.519443 0.110949
v 1.293544 1.381664 0.050011
v 1.293544 1.519443 -0.110949
v 1.293544 1.381664 -0.050011
v 1.272413 1.724039 0.044118
v 1.385950 1.582126 -0.102151
v 1.385950 1.582126 0.102151
v 1.385950 1.656890 0.102151
v 1.272413 1.724039 -0.044118
v 1.385950 1.656890 -0.102151
v 1.385950 1.422671 0.101408
v 1.385950 1.381664 0.056606
v 1.385950 1.422671 -0.101408
v 1.385950 1.381664 -0.056606
v 1.385950 1.724039 0.049936
v 1.385950 1.724039 -0.049936
v 2.393478 1.656890 -0.102151
v 2.393478 1.656890 0.102151
v 2.308444 1.422671 0.101408
v 2.308444 1.381664 0.056606
v 2.308444 1.422671 -0.101408
v 2.308444 1.381664 -0.056606
v 2.303183 1.724039 0.049936
v 2.303183 1.724039 -0.049936
v 3.043253 1.433624 -0.108991
v 3.043253 1.433624 0.108991
v 3.043253 1.211578 0.108199
v 3.043253 1.162915 0.060396
v 3.043253 1.211578 -0.108199
v 3.043253 1.162915 -0.060396
v 3.043253 1.472275 0.053280
v 3.043253 1.472275 -0.053280
v 3.204704 1.426868 -0.108991
v 3.204704 1.426868 0.108991
v 4.418814 0.956228 0.108199
v 4.471826 0.769010 0.060396
v 4.418814 0.956228 -0.108199
v 4.471826 0.769010 -0.060396
v 3.204704 1.549239 0.053280
v 3.204704 1.549239 -0.053280
v 4.457938 1.290096 -0.108991
v 4.457938 1.290095 0.108991
v 4.555445 1.482587 0.053280
v 4.555445 1.482587 -0.053280
v 1.914535 1.422671 0.101408
v 1.914535 1.381664 0.056606
v 1.914535 1.422671 -0.101408
v 1.914535 1.381664 -0.056606
v 2.079653 1.335449 0.101408
v 2.079653 1.287233 0.056606
v 2.079653 1.335449 -0.101408
v 2.079653 1.287233 -0.056606
vn -0.0000 0.7071 -0.7071
vn -0.0000 -0.0000 -1.0000
vn -0.0000 -0.7071 -0.7071
vn -0.0000 -1.0000 -0.0000
vn -0.0000 -0.7071 0.7071
vn -0.0000 -0.0000 1.0000
vn -0.0000 0.7071 0.7071
vn -0.0000 1.0000 -0.0000
vn -1.0000 -0.0000 -0.0000
vn 0.0979 -0.0046 0.9952
vn -0.4565 -0.4087 -0.7903
vn -0.4221 0.3814 0.8224
vn 0.0731 -0.4298 0.9000
vn -0.0000 -0.4593 0.8883
vn -0.0000 -0.4593 -0.8883
vn -0.5276 0.8495 -0.0000
vn -0.0868 -0.0000 -0.9962
vn -0.0000 0.4207 0.9072
vn -0.0000 0.4207 -0.9072
vn -0.6603 -0.7510 -0.0000
vn -0.5428 0.5939 0.5939
vn 0.0731 -0.4298 -0.9000
vn -0.3227 -0.9465 -0.0000
vn -0.0481 -0.7368 -0.6744
vn -0.5428 0.5939 -0.5939
vn -0.0868 -0.0000 0.9962
vn 0.1696 0.4146 -0.8940
vn 0.1696 0.4146 0.8940
vn -0.3127 -0.3842 0.8687
vn -0.0567 0.5962 -0.8008
vn -0.0839 0.2587 0.9623
vn -0.0567 0.5962 0.8008
vn -0.3632 -0.6602 -0.6574
vn -0.4964 -0.8681 -0.0000
vn -0.0000 -0.7377 0.6752
vn -0.0000 -0.7377 -0.6752
vn -0.0000 0.6139 -0.7894
vn -0.0000 0.6139 0.7894
vn -0.0839 0.2587 -0.9623
vn 0.0979 -0.0046 -0.9952
vn -0.3127 -0.3842 -0.8687
vn -0.0481 -0.7368 0.6744
vn -0.0103 -0.0014 -0.9999
vn 0.2660 0.7902 0.5521
vn 0.3221 0.9467 -0.0000
vn -0.2103 -0.7023 -0.6801
vn -0.0103 -0.0014 0.9999
vn 0.2660 0.7902 -0.5521
vn -0.2103 -0.7023 0.6801
vn -0.2853 -0.9584 -0.0000
vn -0.2658 -0.9640 -0.0000
vn -0.0006 -0.0033 -1.0000
vn -0.1228 0.5647 0.8161
vn -0.4303 0.9027 -0.0000
vn -0.0906 -0.3915 -0.9157
vn -0.0006 -0.0033 1.0000
vn -0.1228 0.5647 -0.8161
vn -0.0906 -0.3915 0.9157
vn 0.0255 0.3265 0.9449
vn 0.0255 0.3265 -0.9449
vn 0.0493 0.9988 -0.0000
vn -0.0003 -0.0023 1.0000
vn -0.0003 -0.0023 -1.0000
vn 0.8921 -0.4519 -0.0000
vn 0.9932 -0.1164 -0.0000
vn 0.9622 0.2724 -0.0000
vn -0.4565 -0.4087 0.7903
vn -0.4221 0.3814 -0.8224
vn -0.3632 -0.6602 0.6574
vn 0.2708 -0.6821 -0.6792
vn 0.3815 -0.9244 -0.0000
vn 0.2708 -0.6821 0.6792
vn 0.0002 -0.0040 -1.0000
vn 0.0002 -0.0040 1.0000
vn -0.0000 -0.0023 -1.0000
vn -0.0000 -0.0023 1.0000
vt 1.000000 0.500000
vt 0.000000 0.500000
vt 0.750000 0.490000
vt 0.000000 1.000000
vt 1.000000 1.000000
vt 0.875000 0.500000
vt 0.919706 0.419706
vt 0.875000 1.000000
vt 0.750000 0.500000
vt 0.990000 0.250000
vt 0.750000 1.000000
vt 0.625000 0.500000
vt 0.919706 0.080294
vt 0.625000 1.000000
vt 0.500000 0.500000
vt 0.750000 0.010000
vt 0.500000 1.000000
vt 0.375000 0.500000
vt 0.580294 0.080294
vt 0.375000 1.000000
vt 0.250000 0.500000
vt 0.510000 0.250000
vt 0.250000 1.000000
vt 0.125000 0.500000
vt 0.580294 0.419706
vt 0.125000 1.000000
vt 0.875000 1.000000
vt 0.000000 1.000000
vt 1.000000 1.000000
vt 0.750000 1.000000
vt 0.375000 1.000000
vt 0.250000 1.000000
vt 0.125000 1.000000
vt 0.625000 1.000000
vt 0.750000 1.000000
vt 0.500000 1.000000
vt 0.375000 1.000000
vt 0.625000 1.000000
vt 0.750000 1.000000
vt 0.500000 1.000000
vt 0.375000 1.000000
vt 0.375000 1.000000
vt 0.500000 1.000000
vt 0.750000 1.000000
vt 0.625000 1.000000
vt 0.125000 1.000000
vt 0.750000 1.000000
vt 0.375000 1.000000
vt 0.250000 1.000000
vt 1.000000 1.000000
vt 0.000000 1.000000
vt 0.875000 1.000000
vt 0.375000 1.000000
vt 0.500000 1.000000
vt 0.750000 1.000000
vt 0.625000 1.000000
vt 0.125000 1.000000
vt 1.000000 1.000000
vt 0.000000 1.000000
vt 0.875000 1.000000
vt 0.750000 1.000000
vt 0.375000 1.000000
vt 0.250000 1.000000
vt 0.375000 1.000000
vt 0.500000 1.000000
vt 0.750000 1.000000
vt 0.625000 1.000000
vt 0.125000 1.000000
vt 0.000000 1.000000
vt 1.000000 1.000000
vt 0.750000 1.000000
vt 0.875000 1.000000
vt 0.250000 1.000000
vt 0.375000 1.000000
vt 0.375000 1.000000
vt 0.500000 1.000000
vt 0.750000 1.000000
vt 0.625000 1.000000
vt 0.125000 1.000000
vt 0.000000 1.000000
vt 1.000000 1.000000
vt 0.750000 1.000000
vt 0.875000 1.000000
vt 0.375000 1.000000
vt 0.250000 1.000000
vt 0.375000 1.000000
vt 0.500000 1.000000
vt 0.750000 1.000000
vt 0.625000 1.000000
vt 0.125000 1.000000
vt 1.000000 1.000000
vt 0.000000 1.000000
vt 0.875000 1.000000
vt 0.250000 1.000000
vt 0.125000 1.000000
vt 0.000000 1.000000
vt 1.000000 1.000000
vt 0.375000 1.000000
vt 0.500000 1.000000
vt 0.750000 1.000000
vt 0.625000 1.000000
vt 0.375000 1.000000
vt 0.500000 1.000000
vt 0.750000 1.000000
vt 0.625000 1.000000
s 0
f 1/1/1 2/5/1 4/8/1 3/6/1
f 3/6/2 4/8/2 6/11/2 5/9/2
f 5/9/3 6/11/3 8/14/3 7/12/3
f 7/12/4 8/14/4 10/17/4 9/15/4
f 9/15/5 10/17/5 12/20/5 11/18/5
f 11/18/6 12/20/6 14/23/6 13/21/6
f 6/11/2 4/8/2 17/27/2 19/30/2
f 13/21/7 14/23/7 16/26/7 15/24/7
f 15/24/8 16/26/8 2/4/8 1/2/8
f 1/3/9 3/7/9 5/10/9 7/13/9 9/16/9 11/19/9 13/22/9 15/25/9
f 37/48/10 31/42/10 41/53/10
f 8/14/11 24/35/11 23/34/11
f 2/4/8 16/26/8 22/33/8 18/28/8
f 4/8/1 2/5/1 18/29/1 17/27/1
f 10/17/12 26/37/12 12/20/12
f 14/23/6 12/20/6 20/31/6 21/32/6
f 30/41/13 29/40/13 32/43/13 31/42/13
f 16/26/7 14/23/7 21/32/7 22/33/7
f 26/37/14 25/36/14 29/40/14 30/41/14
f 23/34/15 24/35/15 28/39/15 27/38/15
f 25/36/4 23/34/4 27/38/4 29/40/4
f 18/28/16 22/33/16 35/46/16 39/51/16
f 19/30/17 17/27/17 40/52/17 36/47/17
f 20/31/18 12/20/18 26/37/18 30/41/18
f 6/11/19 19/30/19 28/39/19 24/35/19
f 10/17/20 8/14/20 23/34/20 25/36/20
f 22/33/21 21/32/21 35/46/21
f 27/38/22 28/39/22 33/44/22 34/45/22
f 29/40/23 27/38/23 34/45/23 32/43/23
f 34/45/24 43/55/24 44/56/24
f 17/27/25 18/29/25 39/50/25
f 21/32/26 20/31/26 37/48/26 38/49/26
f 19/30/27 33/44/27 28/39/27
f 31/42/28 20/31/28 30/41/28
f 32/43/29 41/53/29 31/42/29
f 17/27/30 39/50/30 46/58/30 40/52/30
f 20/31/31 31/42/31 37/48/31
f 39/51/8 35/46/8 45/57/8 46/59/8
f 35/46/32 21/32/32 38/49/32 45/57/32
f 32/43/4 34/45/4 44/56/4 42/54/4
f 78/101/33 77/100/33 81/104/33 82/105/33
f 76/99/34 78/101/34 82/105/34 80/103/34
f 38/49/6 37/48/6 48/63/6
f 41/53/35 42/54/35 76/99/35 75/98/35
f 44/56/36 43/55/36 77/100/36 78/101/36
f 40/52/37 46/58/37 54/70/37 47/60/37
f 42/54/4 44/56/4 78/101/4 76/99/4
f 36/47/2 40/52/2 47/61/2
f 46/59/8 45/57/8 53/68/8 54/69/8
f 45/57/38 38/49/38 48/63/38 53/68/38
f 19/30/39 36/47/39 33/44/39
f 43/55/40 33/44/40 36/47/40
f 34/45/41 33/44/41 43/55/41
f 32/43/42 42/54/42 41/53/42
f 51/66/43 47/61/43 55/71/43 59/77/43
f 53/68/44 48/63/44 56/73/44 61/79/44
f 54/69/45 53/68/45 61/79/45 62/80/45
f 52/67/46 51/66/46 59/77/46 60/78/46
f 48/62/47 49/64/47 57/75/47 56/74/47
f 47/60/48 54/70/48 62/81/48 55/72/48
f 49/64/49 50/65/49 58/76/49 57/75/49
f 50/65/50 52/67/50 60/78/50 58/76/50
f 58/76/51 60/78/51 68/89/51 66/87/51
f 59/77/52 55/71/52 63/82/52 67/88/52
f 61/79/53 56/73/53 64/85/53 69/90/53
f 62/80/54 61/79/54 69/90/54 70/92/54
f 60/78/55 59/77/55 67/88/55 68/89/55
f 56/74/56 57/75/56 65/86/56 64/84/56
f 55/72/57 62/81/57 70/91/57 63/83/57
f 57/75/58 58/76/58 66/87/58 65/86/58
f 69/90/59 64/85/59 72/94/59 73/95/59
f 63/83/60 70/91/60 74/97/60 71/93/60
f 70/92/61 69/90/61 73/95/61 74/96/61
f 65/86/62 72/94/62 64/85/62
f 63/83/63 71/93/63 67/88/63
f 73/95/64 72/94/64 71/93/64 74/97/64
f 72/94/65 65/86/65 67/88/65 71/93/65
f 68/89/66 67/88/66 65/86/66 66/87/66
f 10/17/67 25/36/67 26/37/67
f 8/14/68 6/11/68 24/35/68
f 75/98/69 76/99/69 80/103/69 79/102/69
f 51/66/70 52/67/70 82/105/70 81/104/70
f 52/67/71 50/65/71 80/103/71 82/105/71
f 50/65/72 49/64/72 79/102/72 80/103/72
f 43/55/73 36/47/73 47/61/73 77/100/73
f 37/48/74 41/53/74 75/98/74 48/63/74
f 51/66/75 81/104/75 77/100/75 47/61/75
f 48/63/76 75/98/76 79/102/76 49/64/76
o Cube
v 2.006154 1.359706 0.033326
v 2.129609 1.361527 0.033326
v 2.006154 1.359706 -0.033326
v 2.129609 1.361527 -0.033326
v 2.081220 1.195975 0.033326
v 2.124134 1.213211 0.033326
v 2.081220 1.195975 -0.033326
v 2.124134 1.213211 -0.033326
v 2.208115 1.129996 -0.033326
v 2.187562 1.096139 -0.033326
v 2.187562 1.096139 0.033326
v 2.208115 1.129996 0.033326
v 2.333004 1.131745 -0.033326
v 2.340038 1.092767 -0.033326
v 2.340038 1.092767 0.033326
v 2.333004 1.131745 0.033326
v 2.446914 1.307012 -0.029507
v 2.378579 1.070743 -0.029507
v 2.378579 1.070743 0.029507
v 2.446914 1.307012 0.029507
v 2.944134 1.163202 -0.029507
v 2.875799 0.926933 -0.029507
v 2.875799 0.926933 0.029507
v 2.944134 1.163202 0.029507
v 2.480254 1.253457 -0.029507
v 2.435359 1.098233 -0.029507
v 2.435359 1.098233 0.029507
v 2.480254 1.253457 0.029507
v 2.887354 1.135712 -0.029507
v 2.842459 0.980488 -0.029507
v 2.842459 0.980488 0.029507
v 2.887354 1.135712 0.029507
vn -0.0147 0.9999 -0.0000
vn -0.0000 -0.0000 -1.0000
vn -0.0000 -0.0000 1.0000
vn -0.9090 -0.4168 -0.0000
vn 0.9993 -0.0369 -0.0000
vn -0.0221 -0.9998 -0.0000
vn -0.6845 -0.7291 -0.0000
vn 0.7039 0.7103 -0.0000
vn -0.8385 0.5449 -0.0000
vn -0.0140 0.9999 -0.0000
vn -0.2778 -0.9606 -0.0000
vn 0.0644 -0.0143 -0.9978
vn 0.0644 -0.0143 0.9978
vn -0.4962 -0.8682 -0.0000
vn 0.9606 -0.2778 -0.0000
vn 0.2778 0.9606 -0.0000
vn -0.9606 0.2778 -0.0000
vt 0.375000 0.000000
vt 0.375000 1.000000
vt 0.125000 0.750000
vt 0.625000 0.000000
vt 0.625000 1.000000
vt 0.875000 0.750000
vt 0.375000 0.250000
vt 0.125000 0.500000
vt 0.625000 0.250000
vt 0.875000 0.500000
vt 0.375000 0.750000
vt 0.625000 0.750000
vt 0.375000 0.500000
vt 0.625000 0.500000
vt 0.625000 0.500000
vt 0.375000 0.500000
vt 0.375000 0.750000
vt 0.625000 0.750000
vt 0.625000 0.500000
vt 0.375000 0.500000
vt 0.375000 0.750000
vt 0.625000 0.750000
vt 0.625000 0.500000
vt 0.375000 0.500000
vt 0.375000 0.750000
vt 0.625000 0.750000
vt 0.625000 0.500000
vt 0.375000 0.500000
vt 0.375000 0.750000
vt 0.625000 0.750000
vt 0.625000 0.500000
vt 0.375000 0.500000
vt 0.375000 0.750000
vt 0.625000 0.750000
vt 0.625000 0.500000
vt 0.375000 0.500000
vt 0.375000 0.750000
vt 0.625000 0.750000
s 0
f 83/106/77 84/109/77 86/114/77 85/112/77
f 85/112/78 86/114/78 90/119/78 89/118/78
f 88/117/79 87/116/79 93/122/79 94/123/79
f 87/116/79 88/117/79 84/110/79 83/107/79
f 85/113/80 89/118/80 87/116/80 83/108/80
f 90/119/81 86/115/81 84/111/81 88/117/81
f 93/122/82 92/121/82 96/125/82 97/126/82
f 87/116/83 89/118/83 92/121/83 93/122/83
f 90/119/84 88/117/84 94/123/84 91/120/84
f 89/118/78 90/119/78 91/120/78 92/121/78
f 95/124/85 98/127/85 102/131/85 99/128/85
f 91/120/86 94/123/86 98/127/86 95/124/86
f 92/121/78 91/120/78 95/124/78 96/125/78
f 94/123/79 93/122/79 97/126/79 98/127/79
f 101/130/87 100/129/87 104/133/87 105/134/87
f 96/125/88 95/124/88 99/128/88 100/129/88
f 98/127/89 97/126/89 101/130/89 102/131/89
f 97/126/90 96/125/90 100/129/90 101/130/90
f 104/133/91 103/132/91 106/135/91 105/134/91
f 99/128/92 102/131/92 106/135/92 103/132/92
f 103/132/78 104/133/78 112/141/78 111/140/78
f 104/133/78 100/129/78 108/137/78 112/141/78
f 99/128/78 103/132/78 111/140/78 107/136/78
f 101/130/79 105/134/79 113/142/79 109/138/79
f 100/129/78 99/128/78 107/136/78 108/137/78
f 105/134/79 106/135/79 114/143/79 113/142/79
f 106/135/79 102/131/79 110/139/79 114/143/79
f 102/131/79 101/130/79 109/138/79 110/139/79
f 108/137/92 109/138/92 113/142/92 112/141/92
f 108/137/91 107/136/91 110/139/91 109/138/91
f 110/139/87 107/136/87 111/140/87 114/143/87
f 112/141/93 113/142/93 114/143/93 111/140/93
o Cube.001
v 2.274949 1.233771 0.008835
v 2.280689 1.405940 0.027265
v 2.294290 1.230967 0.008835
v 2.332103 1.398485 0.027265
v 2.280689 1.405940 -0.009595
v 2.332103 1.398485 -0.009595
vn -0.0154 -0.1059 0.9943
vn 0.9755 -0.2202 -0.0000
vn -0.0154 -0.1059 -0.9943
vn -0.9994 0.0333 -0.0000
vn 0.1435 0.9897 -0.0000
vt 0.375000 0.000000
vt 0.375000 0.750000
vt 0.625000 0.000000
vt 0.625000 1.000000
vt 0.875000 0.750000
vt 0.375000 0.250000
vt 0.375000 0.500000
vt 0.625000 0.250000
vt 0.875000 0.500000
vt 0.625000 0.750000
vt 0.625000 0.500000
s 0
f 115/144/94 117/149/94 118/151/94 116/146/94
f 117/149/95 120/154/95 118/151/95
f 117/150/96 115/145/96 119/153/96 120/154/96
f 115/145/97 116/147/97 119/153/97
f 120/154/98 119/153/98 116/148/98 118/152/98
